# Blender 4.4.3
# www.blender.org
mtllib ElecDeco1.mtl
o Cube
v 0.657555 1.297497 -0.832394
v 0.657555 1.297497 0.832394
v -0.657555 1.465104 -1.000000
v -0.657555 -1.465104 -0.827472
v -0.423511 1.465104 0.786085
v -0.657555 -1.465104 0.827472
v 0.657555 -0.156553 -0.832394
v -0.657555 -0.324160 1.000000
v 0.657555 -0.156553 0.832394
v -0.657555 -0.324160 -1.000000
v 0.222449 1.465104 0.786085
v 0.703430 1.297497 -0.832394
v 0.703430 1.297497 0.832394
v 0.703430 -0.156553 -0.832394
v 0.703430 -0.156553 0.832394
v -0.657555 -1.465104 0.000000
v 0.222449 1.465104 0.565714
v -0.423511 1.465104 0.565714
v 0.431010 -1.465104 0.000000
v 0.657555 -0.324160 0.000000
v -0.657555 -0.324160 0.000000
v 0.657555 1.297497 0.000000
v 0.657555 -0.156553 0.000000
v 0.703430 1.297497 0.000000
v 0.703430 -0.156553 0.000000
v -0.657555 1.465104 1.000000
v 0.657555 1.465104 0.000000
v -0.657555 1.465104 0.000000
v 0.222449 1.698233 0.786085
v -0.423511 1.698233 0.786085
v 0.222449 1.698233 0.565714
v -0.423511 1.698233 0.565714
v 0.285846 -1.465104 -0.827472
v 0.431010 -1.465104 -0.707353
v 0.431010 -1.465104 0.707353
v 0.285846 -1.465104 0.827472
v 0.657555 1.319939 -0.854836
v 0.512390 1.465104 -1.000000
v 0.657555 1.465104 -0.854836
v 0.512390 -0.324160 -1.000000
v 0.657555 -0.324160 -0.854836
v 0.657555 -0.324160 0.854836
v 0.512390 -0.324160 1.000000
v 0.512390 1.465104 1.000000
v 0.657555 1.319939 0.854836
v 0.657555 1.465104 0.854836
v 0.527283 1.465104 0.935953
vn -1.0000 -0.0000 -0.0000
vn 1.0000 -0.0000 -0.0000
vn 0.9809 -0.1948 -0.0000
vn -0.0000 -0.0000 1.0000
vn -0.0000 1.0000 -0.0000
vn -0.0000 -1.0000 -0.0000
vn -0.0000 -0.0000 -1.0000
vn -0.0000 -0.1495 0.9888
vn -0.0000 -0.1495 -0.9888
vn 0.7071 -0.0000 -0.7071
vn 0.6877 0.2329 0.6877
vn 0.6563 -0.2310 -0.7183
vn 0.6563 -0.2310 0.7183
vn 0.7071 -0.0000 0.7071
vt 0.645588 0.644926
vt 0.645588 0.614226
vt 0.678066 0.614226
vt 0.678066 0.644926
vt 0.322704 0.773903
vt 0.206741 0.773903
vt 0.203615 0.750553
vt 0.322704 0.750553
vt 0.322704 0.249447
vt 0.322704 0.000181
vt 0.462016 0.000181
vt 0.462016 0.249447
vt 0.322704 0.591605
vt 0.203615 0.591605
vt 0.854547 0.523874
vt 0.651979 0.523874
vt 0.651979 0.517483
vt 0.854547 0.517483
vt 0.438667 0.976470
vt 0.438667 0.773903
vt 0.441793 0.750553
vt 0.441793 0.979596
vt 0.441793 0.591605
vt 0.441793 0.750553
vt 0.668938 0.020404
vt 0.689161 0.000181
vt 0.852149 0.000181
vt 0.852149 0.139493
vt 0.668938 0.139493
vt 0.322704 0.408395
vt 0.462016 0.408395
vt 0.183392 0.571382
vt 0.183392 0.408395
vt 0.645588 0.139493
vt 0.645588 0.023530
vt 0.648715 0.020404
vt 0.163168 0.750553
vt 0.163168 0.999819
vt 0.000181 0.999819
vt 0.000181 0.750553
vt 0.882311 0.060796
vt 0.882311 0.150786
vt 0.852510 0.183392
vt 0.852510 0.020404
vt 0.861433 0.018329
vt 0.651979 0.401520
vt 0.854547 0.401520
vt 0.860938 0.401520
vt 0.860938 0.517483
vt 0.645588 0.401520
vt 0.645588 0.285558
vt 0.651979 0.285558
vt 0.651979 0.279167
vt 0.854547 0.279167
vt 0.854547 0.285558
vt 0.645588 0.517483
vt 0.860938 0.285558
vt 0.206741 0.773903
vt 0.206741 0.976470
vt 0.203615 0.979596
vt 0.203615 0.750553
vt 0.183392 0.249447
vt 0.163168 0.591605
vt 0.163168 0.750553
vt 0.000181 0.591605
vt 0.645227 0.591605
vt 0.645227 0.750553
vt 0.482239 0.750553
vt 0.482239 0.591605
vt 0.183392 0.000181
vt 0.645227 0.999819
vt 0.482239 0.999819
vt 0.482239 0.750553
vt 0.861511 0.786619
vt 0.861511 0.817319
vt 0.819044 0.838197
vt 0.800895 0.826897
vt 0.800895 0.707808
vt 0.645588 0.255456
vt 0.668938 0.258582
vt 0.648715 0.258582
vt 0.645588 0.844789
vt 0.645588 0.814088
vt 0.678194 0.735277
vt 0.678194 0.874590
vt 0.800895 0.674841
vt 0.800895 0.584851
vt 0.879706 0.524235
vt 0.879706 0.707446
vt 0.768056 0.644926
vt 0.768056 0.614226
vt 0.800534 0.524235
vt 0.800534 0.614226
vt 0.768056 0.524235
vt 0.800534 0.644926
vt 0.800534 0.734916
vt 0.768056 0.734916
vt 0.462016 0.979596
vt 0.462016 0.999819
vt 0.183392 0.979596
vt 0.183392 0.999819
vt 0.165243 0.999819
vt 0.462016 0.571382
s 0
usemtl Material
f 18/1/1 5/2/1 30/3/1 32/4/1
f 23/5/2 9/6/2 42/7/2 20/8/2
f 21/9/1 28/10/1 3/11/1 10/12/1
f 19/13/3 20/8/3 42/7/3 35/14/3
f 1/19/2 7/20/2 41/21/2 37/22/2
f 34/23/3 41/24/3 20/8/3 19/13/3
f 39/25/5 38/26/5 3/27/5 28/28/5 27/29/5
f 16/30/1 21/9/1 10/12/1 4/31/1
f 16/30/6 19/13/6 35/14/6 36/32/6 6/33/6
f 7/20/2 23/5/2 20/8/2 41/24/2
f 22/34/2 1/35/2 37/36/2 39/25/2 27/29/2
f 43/37/4 44/38/4 26/39/4 8/40/4
f 11/41/5 5/42/5 26/43/5 44/44/5 47/45/5
f 9/58/2 2/59/2 45/60/2 42/61/2
f 6/33/1 8/62/1 21/9/1 16/30/1
f 36/63/8 43/64/8 8/40/8 6/65/8
f 4/66/9 10/67/9 40/68/9 33/69/9
f 8/62/1 26/70/1 28/10/1 21/9/1
f 10/67/7 3/71/7 38/72/7 40/73/7
f 17/74/5 11/75/5 47/76/5 46/77/5 27/78/5
f 2/79/2 22/34/2 27/29/2 46/80/2 45/81/2
f 5/82/5 18/83/5 28/84/5 26/85/5
f 18/86/5 17/87/5 27/88/5 28/89/5
f 31/90/5 32/4/5 30/3/5 29/91/5
f 5/92/4 11/93/4 29/91/4 30/94/4
f 17/95/7 18/96/7 32/97/7 31/90/7
f 11/93/2 17/95/2 31/90/2 29/91/2
f 37/98/10 38/72/10 39/99/10
f 44/38/11 45/100/11 46/101/11 47/102/11
f 41/24/12 34/23/12 33/69/12 40/68/12
f 43/64/13 36/63/13 35/14/13 42/7/13
f 37/22/10 41/21/10 40/73/10 38/72/10
f 44/38/14 43/37/14 42/61/14 45/60/14
f 4/31/6 33/103/6 34/23/6 19/13/6 16/30/6
usemtl Material.001
f 2/15/4 9/16/4 15/17/4 13/18/4
f 25/46/2 24/47/2 13/18/2 15/17/2
f 22/48/5 2/49/5 13/18/5 24/47/5
f 23/50/6 7/51/6 14/52/6 25/46/6
f 7/53/7 1/54/7 12/55/7 14/52/7
f 9/56/6 23/50/6 25/46/6 15/17/6
f 1/57/5 22/48/5 24/47/5 12/55/5
f 14/52/2 12/55/2 24/47/2 25/46/2
