# Blender 4.4.3
# www.blender.org
mtllib SanScrap-Floor1.mtl
o Cube
v -2.500000 -0.491981 2.500000
v -2.450000 0.491981 2.450000
v -2.500000 -0.491981 -2.500000
v -2.450000 0.491981 -2.450000
v 2.500000 -0.491981 2.500000
v 2.450000 0.491981 2.450000
v 2.500000 -0.491981 -2.500000
v 2.450000 0.491981 -2.450000
v -2.500000 -0.491981 0.000000
v -2.450000 0.491981 -0.050000
v 2.500000 -0.491981 0.000000
v 2.450000 0.491981 0.050000
v 0.000000 -0.491981 -2.500000
v -0.050000 0.491981 -2.450000
v 0.000000 -0.491981 2.500000
v 0.050000 0.491981 2.450000
v -0.050000 0.491981 -0.050000
v 0.000000 -0.491981 0.000000
v -2.450000 0.491981 0.050000
v -2.500000 0.491981 -2.500000
v 2.450000 0.491981 -0.050000
v 2.500000 0.491981 2.500000
v 0.050000 0.491981 -2.450000
v -0.050000 0.491981 0.050000
v 0.050000 0.491981 0.050000
v -0.050000 0.491981 2.450000
v 0.000000 0.491981 -2.500000
v 2.500000 0.491981 -2.500000
v 0.000000 0.491981 2.500000
v -2.500000 0.491981 2.500000
v -2.500000 0.491981 0.000000
v 2.500000 0.491981 0.000000
v 0.000000 0.491981 0.000000
v 0.050000 0.491981 -0.050000
v -2.450000 0.508019 -0.050000
v -2.450000 0.508019 -2.450000
v 2.450000 0.508019 0.050000
v 2.450000 0.508019 2.450000
v 0.050000 0.508019 0.050000
v -0.050000 0.508019 -2.450000
v 0.050000 0.508019 2.450000
v -0.050000 0.508019 -0.050000
v 0.050000 0.508019 -2.450000
v 2.450000 0.508019 -2.450000
v -0.050000 0.508019 2.450000
v -2.450000 0.508019 2.450000
v -2.450000 0.508019 0.050000
v 2.450000 0.508019 -0.050000
v 0.050000 0.508019 -0.050000
v -0.050000 0.508019 0.050000
vn -1.0000 -0.0000 -0.0000
vn -0.0000 -0.0000 -1.0000
vn 1.0000 -0.0000 -0.0000
vn -0.0000 -0.0000 1.0000
vn -0.0000 -1.0000 -0.0000
vn -0.0000 1.0000 -0.0000
vt 0.604846 0.080650
vt 0.604829 -0.000000
vt 0.806454 -0.000000
vt 0.806441 0.080638
vt 0.604829 0.080650
vt 0.604846 0.161300
vt 0.403221 0.161300
vt 0.403234 0.080662
vt 0.604846 0.241951
vt 0.604829 0.161300
vt 0.806454 0.161300
vt 0.806441 0.241938
vt 0.604829 0.241951
vt 0.604846 0.322601
vt 0.403221 0.322601
vt 0.403234 0.241963
vt 0.201611 0.201610
vt 0.201611 -0.000000
vt 0.403221 0.000001
vt 0.403221 0.201611
vt 0.739756 0.607034
vt 0.539154 0.609860
vt 0.542590 0.606264
vt 0.736102 0.603580
vt 0.006795 0.488729
vt 0.004091 0.666928
vt 0.000000 0.669200
vt 0.002721 0.486497
vt -0.000000 0.201610
vt 0.000001 0.000001
vt 0.403221 0.241951
vt 0.403234 0.161313
vt 0.403221 0.080650
vt 0.403234 0.000012
vt -0.000000 0.403220
vt 0.201611 0.403221
vt 0.404333 0.956151
vt 0.203820 0.959134
vt 0.207269 0.955523
vt 0.400719 0.952715
vt 0.167560 0.406233
vt 0.165554 0.403221
vt 0.403220 0.403220
vt 0.806454 0.241951
vt 0.806441 0.322589
vt 0.806454 0.080650
vt 0.806441 0.161288
vt 0.254038 0.407677
vt 0.172914 0.568201
vt 0.167560 0.568198
vt 0.251888 0.403221
vt 0.407253 0.334697
vt 0.600799 0.334697
vt 0.604831 0.338730
vt 0.403221 0.338730
vt 0.396596 0.540076
vt 0.533450 0.403223
vt 0.539154 0.403221
vt 0.396596 0.545779
vt 0.254038 0.729121
vt 0.251869 0.733587
vt 0.407253 0.330665
vt 0.600799 0.330665
vt 0.604831 0.334697
vt 0.403221 0.334697
vt 0.396596 0.551482
vt 0.259743 0.688335
vt 0.254038 0.688337
vt 0.533449 0.688335
vt 0.539154 0.688337
vt 0.259743 0.403224
vt 0.254038 0.403221
vt 0.407253 0.338730
vt 0.600799 0.338730
vt 0.604831 0.342762
vt 0.403221 0.342762
vt 0.407253 0.342762
vt 0.600799 0.342762
vt 0.604831 0.346794
vt 0.403221 0.346794
vt 0.600799 0.326633
vt 0.407253 0.326633
vt 0.403221 0.322601
vt 0.604831 0.322601
vt 0.600799 0.330665
vt 0.407253 0.330665
vt 0.403221 0.326633
vt 0.604831 0.326633
vt 0.539152 0.408926
vt 0.402299 0.545779
vt 0.254041 0.682632
vt 0.390894 0.545779
vt 0.539152 0.682632
vt 0.254040 0.408926
vt 0.404355 0.755433
vt 0.597900 0.755433
vt 0.597900 0.948979
vt 0.404355 0.948979
vt 0.597901 0.755433
vt 0.791446 0.755433
vt 0.791446 0.948979
vt 0.597900 0.948979
vt 0.806454 0.193546
vt 0.806454 0.000000
vt 1.000000 0.000000
vt 1.000000 0.193546
vt 0.806454 0.387092
vt 0.806454 0.193546
vt 1.000000 0.193546
vt 1.000000 0.387092
vt 0.000000 0.755433
vt 0.203820 0.758729
vt 0.200315 0.762276
vt 0.003556 0.758918
vt 0.404355 0.755603
vt 0.400928 0.759156
vt 0.403221 0.346794
vt 0.596796 0.346794
vt 0.596855 0.350426
vt 0.403280 0.350410
vt 0.739766 0.403221
vt 0.736317 0.406831
vt 0.200656 0.959236
vt 0.000000 0.959281
vt 0.003494 0.955681
vt 0.197087 0.955741
vt 0.203820 0.755433
vt 0.207422 0.758884
vt 0.539154 0.406057
vt 0.542808 0.409511
vt 0.167560 0.752305
vt 0.165629 0.755433
s 0
usemtl Material.001
f 9/1/1 31/2/1 20/3/1 3/4/1
f 13/5/2 27/6/2 28/7/2 7/8/2
f 11/9/3 32/10/3 22/11/3 5/12/3
f 15/13/4 29/14/4 30/15/4 1/16/4
f 18/17/5 11/18/5 5/19/5 15/20/5
f 13/29/5 7/30/5 11/18/5 18/17/5
f 7/31/3 28/32/3 32/10/3 11/9/3
f 1/33/1 30/34/1 31/2/1 9/1/1
f 3/35/5 13/29/5 18/17/5 9/36/5
f 9/36/5 18/17/5 15/20/5 1/43/5
f 5/44/4 22/45/4 29/14/4 15/13/4
f 3/46/2 20/47/2 27/6/2 13/5/2
f 10/48/6 4/49/6 20/50/6 31/51/6
f 12/52/6 6/53/6 22/54/6 32/55/6
f 25/56/6 12/57/6 32/58/6 33/59/6
f 4/49/6 14/60/6 27/61/6 20/50/6
f 6/62/6 16/63/6 29/64/6 22/65/6
f 17/66/6 10/67/6 31/68/6 33/59/6
f 14/69/6 17/66/6 33/59/6 27/70/6
f 16/71/6 25/56/6 33/59/6 29/72/6
f 23/73/6 8/74/6 28/75/6 27/76/6
f 26/77/6 2/78/6 30/79/6 29/80/6
f 2/81/6 19/82/6 31/83/6 30/84/6
f 8/85/6 21/86/6 32/87/6 28/88/6
f 21/89/6 34/90/6 33/59/6 32/58/6
f 19/91/6 24/92/6 33/59/6 31/68/6
f 34/90/6 23/93/6 27/70/6 33/59/6
f 24/92/6 26/94/6 29/72/6 33/59/6
usemtl Material.002
f 24/21/2 19/22/2 47/23/2 50/24/2
f 17/25/3 14/26/3 40/27/3 42/28/3
f 34/37/4 21/38/4 48/39/4 49/40/4
f 10/41/4 17/25/4 42/28/4 35/42/4
f 50/95/6 47/96/6 46/97/6 45/98/6
f 40/99/6 36/100/6 35/101/6 42/102/6
f 44/103/6 43/104/6 49/105/6 48/106/6
f 37/107/6 39/108/6 41/109/6 38/110/6
f 25/111/1 16/112/1 41/113/1 39/114/1
f 23/115/1 34/37/1 49/40/1 43/116/1
f 4/117/1 10/118/1 35/119/1 36/120/1
f 26/121/3 24/21/3 50/24/3 45/122/3
f 6/123/3 12/124/3 37/125/3 38/126/3
f 8/127/2 23/115/2 43/116/2 44/128/2
f 12/124/2 25/111/2 39/114/2 37/125/2
f 2/129/4 26/121/4 45/122/4 46/130/4
f 14/26/2 4/131/2 36/132/2 40/27/2
f 19/22/1 2/129/1 46/130/1 47/23/1
f 16/112/4 6/123/4 38/126/4 41/113/4
f 21/38/3 8/127/3 44/128/3 48/39/3
